<?xml version="1.0" encoding="UTF-8"?>
<svg enable-background="new 0 0 595.28 841.89" version="1.1" viewBox="0 0 595.28 841.89" xml:space="preserve" xmlns="http://www.w3.org/2000/svg">
<style type="text/css">
	.st0{fill:#00AB97;}
	.st1{fill:#166A9D;}
	.st2{fill:#8D99A9;}
</style>

	<path class="st0" d="m110.79 414c19.61 11.11 20.37 45.43 24.47 49.14 4.1 3.7 26.98-38.14 29.99-70.16 0 0-13.14 35.1-16.2 41.82-3.06 6.73-8.3 14.51-9.73 16.33-1.44 1.83-2.16-0.09-3.04-2.85-7.16-17.27-10.67-33.41-25.49-34.28"/>
	<path class="st1" d="m163.58 384.85c0.46-4.38 0-10.52-1.78-14.44-10.57-15.68-37.73 9.57-41.75 10-4.01 0.43-12.53-7.02-18.63-9.48-47.24-17.79-0.72 74.83-0.72 74.83s-22.05-71.43-8.39-69.87c9.86 1.76 20.83 9.26 27.89 8.61 4.97-0.65 11.64-8.76 22.77-11.49 20.6-6.65 11.67 30.02 9.92 42.93l8.5-21.78s1.73-4.93 2.19-9.31"/>
	<path class="st1" d="m517.56 417.78c0.68 0 1.02-0.31 1.02-0.93v-28.6c0-0.62-0.34-0.93-1.02-0.93h-2.11c-0.68 0-1.02 0.31-1.02 0.93v28.6c0 0.62 0.34 0.93 1.02 0.93h2.11zm-1.09-36.63c1.63 0 2.85-1.11 2.85-2.6s-1.22-2.6-2.85-2.6-2.86 1.11-2.86 2.6 1.23 2.6 2.86 2.6m-13.47 35.71c0 0.62 0.34 0.93 1.02 0.93h2.11c0.68 0 1.02-0.31 1.02-0.93v-18.96c0-7.41-4.21-11.31-12.23-11.31-7.95 0-12.23 3.89-12.23 11.31v18.96c0 0.62 0.34 0.93 1.02 0.93h2.11c0.68 0 1.02-0.31 1.02-0.93v-18.41c0-5.87 2.58-8.59 8.09-8.59 5.5 0 8.09 2.72 8.09 8.59v18.41zm-28.51 0.92c0.68 0 1.02-0.31 1.02-0.93v-28.6c0-0.62-0.34-0.93-1.02-0.93h-2.11c-0.68 0-1.02 0.31-1.02 0.93v28.6c0 0.62 0.34 0.93 1.02 0.93h2.11zm-1.09-36.63c1.63 0 2.85-1.11 2.85-2.6s-1.22-2.6-2.85-2.6-2.85 1.11-2.85 2.6 1.22 2.6 2.85 2.6m-13.53 25.21c0 6.12-2.58 8.9-8.29 8.9-5.78 0-8.36-2.78-8.36-8.9v-7.66c0-6.05 2.58-8.83 8.36-8.83 5.5 0 8.29 2.96 8.29 8.83v7.66zm4.15-30.89c0-0.62-0.34-0.93-1.02-0.93h-2.11c-0.68 0-1.02 0.31-1.02 0.93v14.89h-0.07c-1.77-2.53-4.76-3.77-8.84-3.77-7.75 0-11.89 4.02-11.89 11.55v8.77c0 7.54 4.35 11.61 12.5 11.61 8.09 0 12.44-4.08 12.44-11.61v-31.44zm-43.4 39.78c-4.89 0-7.68-2.1-7.68-5.99s3.06-5.99 8.29-5.99h7.81v3.09c0.01 6.11-2.64 8.89-8.42 8.89m0.14-28.66c-3.94 0-7.41 1.11-10.26 3.46-0.48 0.43-0.48 0.87-0.07 1.3l1.16 1.36c0.41 0.5 0.88 0.5 1.36 0.06 1.9-1.73 4.62-2.9 7.47-2.9 5.85 0 8.63 2.78 8.63 9.08v1.17h-8.29c-7.68 0-11.96 3.46-11.96 9.14 0 5.87 4.28 9.27 11.82 9.27 8.29 0 12.57-4.08 12.57-11.61v-8.59c0-7.73-4.28-11.74-12.43-11.74m-29.58 31.19c0.61 0 1.09-0.25 1.29-0.87l14.47-39.1c0.21-0.62-0.07-1.05-0.81-1.05h-2.38c-0.61 0-0.95 0.25-1.16 0.74l-12.64 34.53h-0.07l-12.57-34.53c-0.21-0.5-0.54-0.74-1.16-0.74h-2.58c-0.75 0-1.02 0.43-0.82 1.05l14.48 39.1c0.2 0.62 0.68 0.87 1.29 0.87h2.66zm-42.81-11.42c0 6.12-2.58 8.9-8.29 8.9-5.77 0-8.36-2.78-8.36-8.9v-7.66c0-6.05 2.58-8.83 8.36-8.83 5.71 0 8.29 2.78 8.29 8.83v7.66zm-8.29-19.77c-8.15 0-12.5 4.02-12.5 11.55v8.83c0 7.54 4.35 11.55 12.5 11.55 8.09 0 12.44-4.01 12.44-11.55v-8.83c-0.01-7.54-4.35-11.55-12.44-11.55m-35.1 30.27c0 0.62 0.34 0.93 1.02 0.93h2.11c0.68 0 1.02-0.31 1.02-0.93v-19.21c0-5.37 2.17-7.78 7.13-7.78 1.9 0 3.6 0.49 5.16 1.48 0.54 0.37 1.02 0.31 1.43-0.25l0.88-1.23c0.34-0.5 0.21-0.93-0.34-1.3-2.04-1.3-4.55-1.98-7.47-1.98-7.2 0-10.94 3.71-10.94 10.81v19.46zm-7.06-28.6c0-0.62-0.34-0.93-1.02-0.93h-1.97c-0.68 0-1.02 0.31-1.02 0.93v18.6c0 5.81-2.51 8.4-7.95 8.4s-7.95-2.6-7.95-8.4v-18.6c0-0.62-0.34-0.93-1.02-0.93h-2.11c-0.68 0-1.02 0.31-1.02 0.93v19.15c0 7.23 4.21 11.12 12.03 11.12 7.88 0 12.03-3.89 12.03-11.12v-19.15zm-43.11 26.99c-4.89 0-7.68-2.1-7.68-5.99s3.06-5.99 8.29-5.99h7.82v3.09c0 6.11-2.65 8.89-8.43 8.89m0.14-28.66c-3.94 0-7.41 1.11-10.26 3.46-0.48 0.43-0.48 0.87-0.07 1.3l1.16 1.36c0.41 0.5 0.88 0.5 1.36 0.06 1.9-1.73 4.62-2.9 7.47-2.9 5.85 0 8.63 2.78 8.63 9.08v1.17h-8.29c-7.68 0-11.96 3.46-11.96 9.14 0 5.87 4.28 9.27 11.82 9.27 8.29 0 12.57-4.08 12.57-11.61v-8.59c0-7.73-4.27-11.74-12.43-11.74m-18.68-8.9c0-0.62-0.34-0.93-1.02-0.93h-4.69c-0.61 0-1.02 0.25-1.22 0.74l-15.02 34.47-15.08-34.47c-0.21-0.5-0.61-0.74-1.22-0.74h-4.62c-0.68 0-1.02 0.31-1.02 0.93v39.17c0 0.62 0.34 0.93 1.02 0.93h2.24c0.68 0 1.02-0.31 1.02-0.93v-34.66h0.07l15.22 34.84c0.21 0.49 0.61 0.74 1.22 0.74h2.24c0.61 0 1.02-0.25 1.22-0.74l15.15-34.66h0.07v34.47c0 0.62 0.34 0.93 1.02 0.93h2.38c0.68 0 1.02-0.31 1.02-0.93v-39.16z"/>
	<path class="st2" d="m514.77 449.62c-1.77 0-2.78-0.76-2.78-2.17s1.11-2.17 3-2.17h2.83v1.12c0 2.21-0.96 3.22-3.05 3.22m0.05-10.39c-1.43 0-2.68 0.4-3.72 1.25-0.17 0.16-0.17 0.31-0.02 0.47l0.42 0.49c0.15 0.18 0.32 0.18 0.49 0.02 0.69-0.63 1.67-1.05 2.71-1.05 2.12 0 3.12 1.01 3.12 3.29v0.42h-3c-2.78 0-4.33 1.25-4.33 3.31 0 2.12 1.55 3.35 4.28 3.35 3 0 4.55-1.48 4.55-4.21v-3.11c0-2.77-1.55-4.23-4.5-4.23m-6.7 9.42c-0.17-0.18-0.37-0.18-0.54 0-0.69 0.65-1.48 0.96-2.46 0.96-2.14 0-3.17-1.01-3.17-3.29v-2.62c0-2.28 0.99-3.29 3.07-3.29 1.03 0 1.75 0.25 2.36 0.78 0.17 0.16 0.39 0.16 0.54-0.02l0.37-0.4c0.15-0.16 0.15-0.33-0.03-0.47-0.79-0.72-1.92-1.07-3.34-1.07-2.88 0-4.48 1.45-4.48 4.25v3.04c0 2.8 1.62 4.27 4.55 4.27 1.4 0 2.56-0.42 3.47-1.27 0.17-0.18 0.17-0.34 0.02-0.49l-0.36-0.38zm-10.81 1.88c0.24 0 0.37-0.11 0.37-0.33v-10.36c0-0.22-0.12-0.33-0.37-0.33h-0.76c-0.24 0-0.37 0.11-0.37 0.33v10.36c0 0.22 0.12 0.33 0.37 0.33h0.76zm-0.39-13.26c0.59 0 1.03-0.4 1.03-0.94s-0.44-0.94-1.03-0.94-1.03 0.4-1.03 0.94c-0.01 0.53 0.44 0.94 1.03 0.94m-3.29 12.1c-0.1-0.22-0.3-0.25-0.54-0.11-0.44 0.25-0.91 0.36-1.45 0.36-1.45 0-2.19-0.74-2.19-2.21v-6.71h3.72c0.24 0 0.37-0.11 0.37-0.33v-0.51c0-0.22-0.12-0.33-0.37-0.33h-3.72v-2.66c0-0.22-0.12-0.34-0.37-0.34h-0.76c-0.24 0-0.37 0.11-0.37 0.34v2.66h-1.48c-0.24 0-0.37 0.11-0.37 0.33v0.51c0 0.22 0.12 0.33 0.37 0.33h1.48v6.78c0 2.17 1.23 3.33 3.54 3.33 0.84 0 1.62-0.15 2.21-0.49 0.2-0.11 0.22-0.27 0.15-0.45l-0.22-0.5zm-9.12-1.81c0-1.94-1.03-2.88-3.99-3.24-2.21-0.27-2.88-0.78-2.88-1.83 0-1.32 1.01-2.06 2.88-2.06 0.96 0 1.9 0.27 2.61 0.78 0.2 0.14 0.37 0.11 0.52-0.07l0.34-0.42c0.15-0.18 0.12-0.31-0.07-0.47-0.86-0.65-2.12-1.01-3.52-1.01-2.58 0-4.26 1.25-4.26 3.22 0 1.83 1.01 2.71 3.84 3.09 2.31 0.31 3.03 0.85 3.03 2.01 0 1.32-0.99 2.06-2.73 2.06-1.4 0-2.51-0.36-3.32-1.1-0.2-0.18-0.39-0.16-0.54 0l-0.39 0.45c-0.15 0.16-0.15 0.31 0.03 0.47 1.08 0.94 2.46 1.36 4.38 1.36 2.5 0 4.07-1.25 4.07-3.24m-11.46 2.97c0.25 0 0.37-0.11 0.37-0.33v-10.36c0-0.22-0.12-0.33-0.37-0.33h-0.76c-0.24 0-0.37 0.11-0.37 0.33v10.36c0 0.22 0.12 0.33 0.37 0.33h0.76zm-0.39-13.26c0.59 0 1.03-0.4 1.03-0.94s-0.44-0.94-1.03-0.94-1.03 0.4-1.03 0.94c0 0.53 0.44 0.94 1.03 0.94m-3.87-2.06c0-0.22-0.12-0.34-0.37-0.34h-0.76c-0.25 0-0.37 0.11-0.37 0.34v14.99c0 0.22 0.12 0.33 0.37 0.33h0.76c0.24 0 0.37-0.11 0.37-0.33v-14.99zm-8.91 14.41c-1.77 0-2.78-0.76-2.78-2.17s1.11-2.17 3-2.17h2.83v1.12c0 2.21-0.96 3.22-3.05 3.22m0.05-10.39c-1.43 0-2.68 0.4-3.72 1.25-0.17 0.16-0.17 0.31-0.02 0.47l0.42 0.49c0.15 0.18 0.32 0.18 0.49 0.02 0.69-0.63 1.67-1.05 2.71-1.05 2.12 0 3.12 1.01 3.12 3.29v0.42h-3c-2.78 0-4.33 1.25-4.33 3.31 0 2.12 1.55 3.35 4.28 3.35 3 0 4.55-1.48 4.55-4.21v-3.11c0.01-2.77-1.54-4.23-4.5-4.23m-7.27 11.3c0.25 0 0.37-0.11 0.37-0.33v-10.36c0-0.22-0.12-0.33-0.37-0.33h-0.76c-0.24 0-0.37 0.11-0.37 0.33v10.36c0 0.22 0.12 0.33 0.37 0.33h0.76zm-0.39-13.26c0.59 0 1.03-0.4 1.03-0.94s-0.44-0.94-1.03-0.94-1.03 0.4-1.03 0.94c-0.01 0.53 0.44 0.94 1.03 0.94m-3.62 11.38c-0.17-0.18-0.37-0.18-0.54 0-0.69 0.65-1.48 0.96-2.46 0.96-2.14 0-3.17-1.01-3.17-3.29v-2.62c0-2.28 0.99-3.29 3.07-3.29 1.03 0 1.75 0.25 2.36 0.78 0.17 0.16 0.39 0.16 0.54-0.02l0.37-0.4c0.15-0.16 0.15-0.33-0.03-0.47-0.79-0.72-1.92-1.07-3.34-1.07-2.88 0-4.48 1.45-4.48 4.25v3.04c0 2.8 1.62 4.27 4.55 4.27 1.4 0 2.56-0.42 3.47-1.27 0.17-0.18 0.17-0.34 0.02-0.49l-0.36-0.38zm-11.46-4.34h-5.93v-0.69c0-2.19 0.94-3.2 2.95-3.2 2.04 0 2.98 1.01 2.98 3.2v0.69zm-3-5.08c-2.88 0-4.43 1.45-4.43 4.18v3.11c0 2.84 1.65 4.27 4.77 4.27 1.48 0 2.73-0.47 3.72-1.41 0.15-0.16 0.15-0.34 0-0.49l-0.42-0.42c-0.15-0.18-0.34-0.18-0.52 0-0.81 0.78-1.62 1.14-2.71 1.14-2.31 0-3.35-0.99-3.35-3.29v-0.87h6.99c0.24 0 0.37-0.11 0.37-0.34v-1.7c0.01-2.72-1.52-4.18-4.42-4.18m-8.45 7.16c0 2.19-0.93 3.22-3 3.22-2.02 0-3.03-1.07-3.03-3.22v-2.77c0-2.19 0.96-3.2 3.03-3.2s3 1.01 3 3.2v2.77zm-3-7.16c-2.95 0-4.53 1.45-4.53 4.18v10.36c0 0.22 0.12 0.34 0.37 0.34h0.76c0.24 0 0.37-0.11 0.37-0.34v-4.38h0.02c0.64 0.94 1.72 1.41 3.2 1.41 2.81 0 4.31-1.45 4.31-4.18v-3.2c0.01-2.73-1.57-4.19-4.5-4.19m-12.46-3.82c-3.1 0-5.14 1.68-5.14 4.21 0 2.44 1.3 3.6 5.02 4.18 3.05 0.47 4.01 1.23 4.01 2.82 0 1.77-1.4 2.91-3.62 2.91-1.92 0-3.45-0.6-4.45-1.81-0.15-0.18-0.34-0.2-0.54-0.04l-0.52 0.42c-0.17 0.16-0.2 0.31-0.07 0.47 1.25 1.48 3.17 2.24 5.66 2.24 3.1 0 5.14-1.68 5.14-4.21 0-2.37-1.28-3.6-4.97-4.14-3.08-0.45-4.06-1.25-4.06-2.87 0-1.77 1.4-2.91 3.62-2.91 1.62 0 2.86 0.49 3.67 1.45 0.15 0.18 0.32 0.22 0.52 0.07l0.59-0.42c0.17-0.13 0.22-0.29 0.07-0.47-1.11-1.27-2.74-1.9-4.93-1.9m-17.47 14.21c-1.77 0-2.78-0.76-2.78-2.17s1.11-2.17 3-2.17h2.83v1.12c0 2.21-0.96 3.22-3.05 3.22m0.05-10.39c-1.43 0-2.68 0.4-3.71 1.25-0.17 0.16-0.17 0.31-0.03 0.47l0.42 0.49c0.15 0.18 0.32 0.18 0.49 0.02 0.69-0.63 1.67-1.05 2.71-1.05 2.12 0 3.13 1.01 3.13 3.29v0.42h-3c-2.78 0-4.33 1.25-4.33 3.31 0 2.12 1.55 3.35 4.28 3.35 3 0 4.55-1.48 4.55-4.21v-3.11c-0.01-2.77-1.56-4.23-4.51-4.23m-7.27 11.3c0.24 0 0.37-0.11 0.37-0.33v-10.36c0-0.22-0.12-0.33-0.37-0.33h-0.76c-0.25 0-0.37 0.11-0.37 0.33v10.36c0 0.22 0.12 0.33 0.37 0.33h0.76zm-0.39-13.26c0.59 0 1.03-0.4 1.03-0.94s-0.44-0.94-1.03-0.94-1.03 0.4-1.03 0.94c-0.01 0.53 0.44 0.94 1.03 0.94m-9.91 12.93c0 0.22 0.12 0.33 0.37 0.33h0.76c0.25 0 0.37-0.11 0.37-0.33v-6.96c0-1.95 0.79-2.82 2.58-2.82 0.69 0 1.31 0.18 1.87 0.54 0.2 0.13 0.37 0.11 0.52-0.09l0.32-0.45c0.12-0.18 0.07-0.33-0.12-0.47-0.74-0.47-1.65-0.72-2.71-0.72-2.61 0-3.96 1.34-3.96 3.91v7.06zm-2.48-0.83c-0.1-0.22-0.3-0.25-0.54-0.11-0.44 0.25-0.91 0.36-1.45 0.36-1.45 0-2.19-0.74-2.19-2.21v-6.71h3.72c0.24 0 0.37-0.11 0.37-0.33v-0.51c0-0.22-0.12-0.33-0.37-0.33h-3.72v-2.66c0-0.22-0.12-0.34-0.37-0.34h-0.76c-0.24 0-0.37 0.11-0.37 0.34v2.66h-1.47c-0.25 0-0.37 0.11-0.37 0.33v0.51c0 0.22 0.12 0.33 0.37 0.33h1.47v6.78c0 2.17 1.23 3.33 3.55 3.33 0.84 0 1.62-0.15 2.21-0.49 0.2-0.11 0.22-0.27 0.15-0.45l-0.23-0.5zm-13.87 0.25c-1.77 0-2.78-0.76-2.78-2.17s1.11-2.17 3-2.17h2.83v1.12c0 2.21-0.96 3.22-3.05 3.22m0.05-10.39c-1.43 0-2.68 0.4-3.71 1.25-0.17 0.16-0.17 0.31-0.03 0.47l0.42 0.49c0.15 0.18 0.32 0.18 0.49 0.02 0.69-0.63 1.67-1.05 2.71-1.05 2.12 0 3.13 1.01 3.13 3.29v0.42h-3c-2.78 0-4.33 1.25-4.33 3.31 0 2.12 1.55 3.35 4.28 3.35 3 0 4.55-1.48 4.55-4.21v-3.11c-0.01-2.77-1.56-4.23-4.51-4.23m-7.27 11.3c0.25 0 0.37-0.11 0.37-0.33v-10.36c0-0.22-0.12-0.33-0.37-0.33h-0.76c-0.25 0-0.37 0.11-0.37 0.33v10.36c0 0.22 0.12 0.33 0.37 0.33h0.76zm-0.39-13.26c0.59 0 1.03-0.4 1.03-0.94s-0.44-0.94-1.03-0.94-1.03 0.4-1.03 0.94c-0.01 0.53 0.44 0.94 1.03 0.94m-5.03 9.12c0 2.21-0.94 3.22-3 3.22-2.09 0-3.03-1.01-3.03-3.22v-2.77c0-2.19 0.94-3.2 3.03-3.2 2.07 0 3 1.01 3 3.2v2.77zm-3-7.16c-2.95 0-4.53 1.45-4.53 4.18v3.2c0 2.73 1.57 4.18 4.53 4.18 2.93 0 4.5-1.45 4.5-4.18v-3.2c0-2.72-1.57-4.18-4.5-4.18m-6.44 10.14c-0.1-0.22-0.3-0.25-0.54-0.11-0.44 0.25-0.91 0.36-1.45 0.36-1.45 0-2.19-0.74-2.19-2.21v-6.71h3.71c0.25 0 0.37-0.11 0.37-0.33v-0.51c0-0.22-0.12-0.33-0.37-0.33h-3.71v-2.66c0-0.22-0.12-0.34-0.37-0.34h-0.76c-0.25 0-0.37 0.11-0.37 0.34v2.66h-1.48c-0.25 0-0.37 0.11-0.37 0.33v0.51c0 0.22 0.12 0.33 0.37 0.33h1.48v6.78c0 2.17 1.23 3.33 3.54 3.33 0.84 0 1.62-0.15 2.21-0.49 0.2-0.11 0.22-0.27 0.15-0.45l-0.22-0.5zm-11 0.83c0 0.22 0.12 0.33 0.37 0.33h0.76c0.25 0 0.37-0.11 0.37-0.33v-6.87c0-2.69-1.52-4.09-4.43-4.09-2.88 0-4.43 1.41-4.43 4.09v6.87c0 0.22 0.12 0.33 0.37 0.33h0.76c0.24 0 0.37-0.11 0.37-0.33v-6.67c0-2.12 0.93-3.11 2.93-3.11 1.99 0 2.93 0.98 2.93 3.11v6.67zm-11.58-3.81c0 2.21-0.94 3.22-3 3.22-2.09 0-3.03-1.01-3.03-3.22v-2.77c0-2.19 0.94-3.2 3.03-3.2 2.07 0 3 1.01 3 3.2v2.77zm-3-7.16c-2.95 0-4.53 1.45-4.53 4.18v3.2c0 2.73 1.57 4.18 4.53 4.18 2.93 0 4.5-1.45 4.5-4.18v-3.2c0-2.72-1.57-4.18-4.5-4.18m-8.75 7.16c0 2.21-0.93 3.22-3 3.22-2.09 0-3.03-1.01-3.03-3.22v-2.77c0-2.19 0.93-3.2 3.03-3.2 1.99 0 3 1.07 3 3.2v2.77zm1.5-11.18c0-0.22-0.12-0.34-0.37-0.34h-0.76c-0.24 0-0.37 0.11-0.37 0.34v5.39h-0.02c-0.64-0.92-1.72-1.37-3.2-1.37-2.81 0-4.31 1.45-4.31 4.18v3.18c0 2.73 1.58 4.21 4.53 4.21 2.93 0 4.5-1.48 4.5-4.21v-11.38zm-21.59 5.82c0-2.93 1.35-4.34 4.13-4.34 2.81 0 4.16 1.41 4.16 4.34v4.16c0 2.93-1.35 4.34-4.16 4.34-2.78 0-4.13-1.41-4.13-4.34v-4.16zm-1.59 4.4c0 3.51 1.99 5.37 5.73 5.37 3.76 0 5.76-1.85 5.76-5.37v-4.65c0-3.51-1.99-5.37-5.76-5.37-3.74 0-5.73 1.86-5.73 5.37v4.65zm-8.91 5.1c0.24 0 0.37-0.11 0.37-0.33v-10.36c0-0.22-0.12-0.33-0.37-0.33h-0.76c-0.25 0-0.37 0.11-0.37 0.33v10.36c0 0.22 0.12 0.33 0.37 0.33h0.76zm-0.39-13.26c0.59 0 1.03-0.4 1.03-0.94s-0.44-0.94-1.03-0.94-1.03 0.4-1.03 0.94c-0.01 0.53 0.43 0.94 1.03 0.94m-5.3 9.12c0 2.21-0.94 3.22-3 3.22-2.09 0-3.03-1.01-3.03-3.22v-2.77c0-2.19 0.94-3.2 3.03-3.2 1.99 0 3 1.07 3 3.2v2.77zm1.5-11.18c0-0.22-0.12-0.34-0.37-0.34h-0.76c-0.25 0-0.37 0.11-0.37 0.34v5.39h-0.03c-0.64-0.92-1.72-1.37-3.2-1.37-2.81 0-4.3 1.45-4.3 4.18v3.18c0 2.73 1.57 4.21 4.53 4.21 2.93 0 4.5-1.48 4.5-4.21v-11.38zm-18.43 11.18c0 2.21-0.93 3.22-3 3.22-2.09 0-3.03-1.01-3.03-3.22v-2.77c0-2.19 0.93-3.2 3.03-3.2 2.07 0 3 1.01 3 3.2v2.77zm-3-7.16c-2.95 0-4.53 1.45-4.53 4.18v3.2c0 2.73 1.58 4.18 4.53 4.18 2.93 0 4.5-1.45 4.5-4.18v-3.2c0-2.72-1.57-4.18-4.5-4.18m-7.66 11.3c0.24 0 0.37-0.11 0.37-0.33v-10.36c0-0.22-0.12-0.33-0.37-0.33h-0.76c-0.25 0-0.37 0.11-0.37 0.33v10.36c0 0.22 0.12 0.33 0.37 0.33h0.76zm-0.39-13.26c0.59 0 1.03-0.4 1.03-0.94s-0.44-0.94-1.03-0.94-1.03 0.4-1.03 0.94c-0.01 0.53 0.44 0.94 1.03 0.94m-5.3 9.12c0 2.21-0.93 3.22-3 3.22-2.09 0-3.03-1.01-3.03-3.22v-2.77c0-2.19 0.93-3.2 3.03-3.2 1.99 0 3 1.07 3 3.2v2.77zm1.5-11.18c0-0.22-0.12-0.34-0.37-0.34h-0.76c-0.24 0-0.37 0.11-0.37 0.34v5.39h-0.02c-0.64-0.92-1.72-1.37-3.2-1.37-2.81 0-4.31 1.45-4.31 4.18v3.18c0 2.73 1.58 4.21 4.53 4.21 2.93 0 4.5-1.48 4.5-4.21v-11.38zm-11.75 4.63c0-0.22-0.12-0.33-0.37-0.33h-0.72c-0.24 0-0.37 0.11-0.37 0.33v6.73c0 2.1-0.91 3.04-2.88 3.04s-2.88-0.94-2.88-3.04v-6.73c0-0.22-0.12-0.33-0.37-0.33h-0.76c-0.25 0-0.37 0.11-0.37 0.33v6.93c0 2.62 1.52 4.03 4.36 4.03 2.85 0 4.36-1.41 4.36-4.03v-6.93zm-11.01 9.53c-0.1-0.22-0.3-0.25-0.54-0.11-0.44 0.25-0.91 0.36-1.45 0.36-1.45 0-2.19-0.74-2.19-2.21v-6.71h3.72c0.25 0 0.37-0.11 0.37-0.33v-0.51c0-0.22-0.12-0.33-0.37-0.33h-3.72v-2.66c0-0.22-0.12-0.34-0.37-0.34h-0.76c-0.25 0-0.37 0.11-0.37 0.34v2.66h-1.48c-0.25 0-0.37 0.11-0.37 0.33v0.51c0 0.22 0.12 0.33 0.37 0.33h1.48v6.78c0 2.17 1.23 3.33 3.54 3.33 0.84 0 1.62-0.15 2.21-0.49 0.2-0.11 0.22-0.27 0.15-0.45l-0.22-0.5zm-13.95-13.96c-3.1 0-5.14 1.68-5.14 4.21 0 2.44 1.3 3.6 5.02 4.18 3.05 0.47 4.01 1.23 4.01 2.82 0 1.77-1.4 2.91-3.62 2.91-1.92 0-3.44-0.6-4.45-1.81-0.15-0.18-0.35-0.2-0.54-0.04l-0.52 0.42c-0.17 0.16-0.2 0.31-0.07 0.47 1.25 1.48 3.17 2.24 5.66 2.24 3.1 0 5.14-1.68 5.14-4.21 0-2.37-1.28-3.6-4.97-4.14-3.07-0.45-4.06-1.25-4.06-2.87 0-1.77 1.4-2.91 3.62-2.91 1.62 0 2.85 0.49 3.67 1.45 0.15 0.18 0.32 0.22 0.52 0.07l0.59-0.42c0.17-0.13 0.22-0.29 0.07-0.47-1.11-1.27-2.74-1.9-4.93-1.9"/>

</svg>
